<svg width="24" height="24" viewBox="0 0 24 24" fill="none" xmlns="http://www.w3.org/2000/svg">
<path d="M11.9997 2.83398C10.1867 2.83398 8.4144 3.3716 6.90695 4.37885C5.3995 5.38609 4.22459 6.81773 3.53078 8.49272C2.83698 10.1677 2.65545 12.0108 3.00915 13.789C3.36284 15.5671 4.23589 17.2005 5.51787 18.4825C6.79985 19.7644 8.43319 20.6375 10.2114 20.9912C11.9895 21.3449 13.8326 21.1634 15.5076 20.4695C17.1826 19.7757 18.6142 18.6008 19.6215 17.0934C20.6287 15.5859 21.1663 13.8136 21.1663 12.0007C21.1635 9.57038 20.1968 7.24047 18.4783 5.52201C16.7599 3.80354 14.43 2.83685 11.9997 2.83398ZM16.1663 12.834H12.833V16.1673C12.833 16.3883 12.7452 16.6003 12.5889 16.7566C12.4327 16.9129 12.2207 17.0007 11.9997 17.0007C11.7787 17.0007 11.5667 16.9129 11.4104 16.7566C11.2541 16.6003 11.1663 16.3883 11.1663 16.1673V12.834H7.83301C7.612 12.834 7.40004 12.7462 7.24376 12.5899C7.08748 12.4336 6.99968 12.2217 6.99968 12.0007C6.99968 11.7796 7.08748 11.5677 7.24376 11.4114C7.40004 11.2551 7.612 11.1673 7.83301 11.1673H11.1663V7.83398C11.1663 7.61297 11.2541 7.40101 11.4104 7.24473C11.5667 7.08845 11.7787 7.00065 11.9997 7.00065C12.2207 7.00065 12.4327 7.08845 12.5889 7.24473C12.7452 7.40101 12.833 7.61297 12.833 7.83398V11.1673H16.1663C16.3874 11.1673 16.5993 11.2551 16.7556 11.4114C16.9119 11.5677 16.9997 11.7796 16.9997 12.0007C16.9997 12.2217 16.9119 12.4336 16.7556 12.5899C16.5993 12.7462 16.3874 12.834 16.1663 12.834Z" fill="#6B4EFF"/>
</svg>
