<svg width="24" height="24" viewBox="0 0 24 24" fill="none" xmlns="http://www.w3.org/2000/svg">
<g clip-path="url(#clip0)">
<path fill-rule="evenodd" clip-rule="evenodd" d="M5.75 3.5C5.15326 3.5 4.58097 3.73705 4.15901 4.15901C3.73705 4.58097 3.5 5.15326 3.5 5.75V17.75C3.5 17.8109 3.50247 17.8716 3.50736 17.9319L7.5122 13.9271C7.67456 13.7646 7.86779 13.6352 8.07998 13.5472C8.29238 13.4591 8.52005 13.4138 8.74998 13.4138C8.97991 13.4138 9.20759 13.4591 9.41998 13.5472C9.63218 13.6352 9.82496 13.7641 9.98731 13.9267L10.75 14.6893L14.5122 10.9271C14.6746 10.7646 14.8678 10.6352 15.08 10.5472C15.2924 10.4591 15.5201 10.4138 15.75 10.4138C15.9799 10.4138 16.2076 10.4591 16.42 10.5472C16.6322 10.6352 16.825 10.7641 16.9873 10.9267L20 13.9393V5.75C20 5.15326 19.7629 4.58097 19.341 4.15901C18.919 3.73705 18.3467 3.5 17.75 3.5H5.75ZM10.2197 16.2803L8.92665 14.9873C8.90353 14.9642 8.87561 14.9453 8.84537 14.9328C8.81514 14.9202 8.78272 14.9138 8.74998 14.9138C8.71725 14.9138 8.68483 14.9202 8.6546 14.9328C8.62436 14.9453 8.59689 14.9637 8.57376 14.9869L4.18962 19.371C4.60842 19.7742 5.16757 20 5.75 20H13.9393L10.2197 16.2803ZM16.0607 20L11.8107 15.75L15.5738 11.9869C15.5969 11.9637 15.6244 11.9453 15.6546 11.9328C15.6848 11.9202 15.7173 11.9138 15.75 11.9138C15.7827 11.9138 15.8151 11.9202 15.8454 11.9328C15.8756 11.9453 15.9035 11.9642 15.9267 11.9873L20 16.0606V17.75C20 18.3467 19.7629 18.919 19.341 19.341C18.919 19.7629 18.3467 20 17.75 20H16.0607ZM21.5 17.75V15.75V5.75C21.5 4.75544 21.1049 3.80161 20.4017 3.09835C19.6984 2.39509 18.7446 2 17.75 2H5.75C4.75544 2 3.80161 2.39509 3.09835 3.09835C2.39509 3.80161 2 4.75544 2 5.75V17.75C2 18.7446 2.39509 19.6984 3.09835 20.4017C3.80161 21.1049 4.75544 21.5 5.75 21.5H17.75C18.7446 21.5 19.6984 21.1049 20.4017 20.4017C21.1049 19.6984 21.5 18.7446 21.5 17.75Z" fill="#858585"/>
<path d="M8.73992 7.63494C9.03137 7.6298 9.31344 7.73798 9.5267 7.9367C9.63724 8.0397 9.72589 8.1639 9.78737 8.3019C9.84886 8.4399 9.88193 8.58887 9.88459 8.73992C9.88726 8.89097 9.85947 9.04101 9.80289 9.1811C9.74631 9.32118 9.66209 9.44843 9.55526 9.55526C9.44843 9.66209 9.32118 9.74631 9.1811 9.80289C9.04101 9.85947 8.89097 9.88726 8.73992 9.88459C8.58887 9.88193 8.4399 9.84887 8.3019 9.78737C8.1639 9.72589 8.0397 9.63723 7.9367 9.5267C7.73798 9.31344 7.6298 9.03137 7.63494 8.73992C7.64008 8.44847 7.75815 8.17039 7.96427 7.96427C8.17039 7.75815 8.44847 7.64008 8.73992 7.63494Z" fill="#858585"/>
</g>
<defs>
<clipPath id="clip0">
<rect width="24" height="24" fill="white"/>
</clipPath>
</defs>
</svg>
