<svg width="24" height="24" viewBox="0 0 24 24" fill="none" xmlns="http://www.w3.org/2000/svg">
<path d="M8.368 4.78907L5.632 3.87607C5.33133 3.77593 5.01118 3.74867 4.69791 3.79654C4.38464 3.8444 4.08723 3.96603 3.83019 4.15139C3.57315 4.33674 3.36383 4.58053 3.21949 4.86266C3.07516 5.14478 2.99992 5.45717 3 5.77407V17.5571C2.9999 17.977 3.13198 18.3863 3.37752 18.727C3.62305 19.0676 3.96959 19.3224 4.368 19.4551L8.368 20.7881C8.77825 20.9247 9.22175 20.9247 9.632 20.7881L14.368 19.2101C14.7783 19.0734 15.2217 19.0734 15.632 19.2101L18.368 20.1221C18.6687 20.2222 18.989 20.2495 19.3023 20.2016C19.6157 20.1536 19.9132 20.0319 20.1702 19.8465C20.4273 19.661 20.6366 19.4171 20.7808 19.1348C20.9251 18.8526 21.0002 18.5401 21 18.2231V6.44107C21.0002 6.02126 20.8682 5.61205 20.6229 5.2714C20.3775 4.93075 20.0312 4.67594 19.633 4.54307L15.633 3.21007C15.2224 3.07321 14.7786 3.07321 14.368 3.21007L9.631 4.78807C9.22074 4.92471 8.77725 4.92471 8.367 4.78807L8.368 4.78907Z" stroke="black" stroke-width="2" stroke-linecap="round" stroke-linejoin="round"/>
<path d="M9 5V21" stroke="black" stroke-width="2" stroke-linejoin="round"/>
<path d="M15 3V19" stroke="black" stroke-width="2" stroke-linejoin="round"/>
</svg>
