<svg width="14" height="12" viewBox="0 0 14 12" fill="none" xmlns="http://www.w3.org/2000/svg">
<path fill-rule="evenodd" clip-rule="evenodd" d="M6.03033 10.5303C5.73744 10.8232 5.26256 10.8232 4.96967 10.5303L0.96967 6.53033C0.676777 6.23744 0.676777 5.76256 0.96967 5.46967L4.96967 1.46967C5.26256 1.17678 5.73744 1.17678 6.03033 1.46967C6.32322 1.76256 6.32322 2.23744 6.03033 2.53033L2.56066 6L6.03033 9.46967C6.32322 9.76256 6.32322 10.2374 6.03033 10.5303Z" fill="#858585"/>
<path fill-rule="evenodd" clip-rule="evenodd" d="M13.0303 11.5303C12.7374 11.8232 12.2626 11.8232 11.9697 11.5303L6.96967 6.53033C6.67678 6.23744 6.67678 5.76256 6.96967 5.46967L11.9697 0.46967C12.2626 0.176777 12.7374 0.176777 13.0303 0.46967C13.3232 0.762563 13.3232 1.23744 13.0303 1.53033L8.56066 6L13.0303 10.4697C13.3232 10.7626 13.3232 11.2374 13.0303 11.5303Z" fill="#858585"/>
</svg>
