<svg width="14" height="12" viewBox="0 0 14 12" fill="none" xmlns="http://www.w3.org/2000/svg">
<path fill-rule="evenodd" clip-rule="evenodd" d="M7.96967 1.46967C8.26256 1.17678 8.73744 1.17678 9.03033 1.46967L13.0303 5.46967C13.3232 5.76256 13.3232 6.23744 13.0303 6.53033L9.03033 10.5303C8.73744 10.8232 8.26256 10.8232 7.96967 10.5303C7.67678 10.2374 7.67678 9.76256 7.96967 9.46967L11.4393 6L7.96967 2.53033C7.67678 2.23744 7.67678 1.76256 7.96967 1.46967Z" fill="#858585"/>
<path fill-rule="evenodd" clip-rule="evenodd" d="M0.96967 0.46967C1.26256 0.176777 1.73744 0.176777 2.03033 0.46967L7.03033 5.46967C7.32322 5.76256 7.32322 6.23744 7.03033 6.53033L2.03033 11.5303C1.73744 11.8232 1.26256 11.8232 0.96967 11.5303C0.676777 11.2374 0.676777 10.7626 0.96967 10.4697L5.43934 6L0.96967 1.53033C0.676777 1.23744 0.676777 0.762563 0.96967 0.46967Z" fill="#858585"/>
</svg>
