<svg width="32" height="32" viewBox="0 0 32 32" fill="none" xmlns="http://www.w3.org/2000/svg">
<path fill-rule="evenodd" clip-rule="evenodd" d="M26.334 2.66602C26.8863 2.66602 27.334 3.11373 27.334 3.66602V8.99935C27.334 9.55163 26.8863 9.99935 26.334 9.99935C25.7817 9.99935 25.334 9.55163 25.334 8.99935V3.66602C25.334 3.11373 25.7817 2.66602 26.334 2.66602Z" fill="black"/>
<path fill-rule="evenodd" clip-rule="evenodd" d="M22.667 6.33203C22.667 5.77975 23.1147 5.33203 23.667 5.33203H29.0003C29.5526 5.33203 30.0003 5.77975 30.0003 6.33203C30.0003 6.88432 29.5526 7.33203 29.0003 7.33203H23.667C23.1147 7.33203 22.667 6.88432 22.667 6.33203Z" fill="black"/>
<path fill-rule="evenodd" clip-rule="evenodd" d="M2.66699 8.9987C2.66699 6.97308 4.30804 5.33203 6.33366 5.33203H18.3337C18.8859 5.33203 19.3337 5.77975 19.3337 6.33203C19.3337 6.88432 18.8859 7.33203 18.3337 7.33203H6.33366C5.41261 7.33203 4.66699 8.07765 4.66699 8.9987V24.9987C4.66699 25.9197 5.41261 26.6654 6.33366 26.6654H23.667C24.588 26.6654 25.3337 25.9197 25.3337 24.9987V14.332C25.3337 13.7797 25.7814 13.332 26.3337 13.332C26.8859 13.332 27.3337 13.7797 27.3337 14.332V24.9987C27.3337 27.0243 25.6926 28.6654 23.667 28.6654H6.33366C4.30804 28.6654 2.66699 27.0243 2.66699 24.9987V8.9987Z" fill="black"/>
<path d="M15.7195 11.22L12.9393 14H9.74998C9.33562 14 9 14.3356 9 14.75V19.25C9 19.6641 9.33562 20 9.74998 20H12.9393L15.7195 22.7797C16.1892 23.2494 16.9998 22.9194 16.9998 22.2494V11.7507C16.9998 11.0797 16.1886 10.7513 15.7195 11.22ZM19.5694 14.5975C19.2075 14.3997 18.751 14.53 18.5504 14.8928C18.3507 15.2556 18.4829 15.7116 18.8457 15.9119C19.2491 16.1338 19.4997 16.5506 19.4997 17C19.4997 17.4494 19.2491 17.8663 18.846 18.0878C18.4832 18.2881 18.351 18.7441 18.5507 19.1069C18.7516 19.4712 19.2085 19.6006 19.5697 19.4022C20.4519 18.9163 21 17.9959 21 16.9997C21 16.0035 20.4519 15.0835 19.5694 14.5975Z" fill="black"/>
</svg>
