<svg width="22" height="22" viewBox="0 0 22 22" fill="none" xmlns="http://www.w3.org/2000/svg">
<path d="M10.9157 0.168412C8.18209 0.188704 5.55377 1.22513 3.54204 3.07608C-0.933128 7.17816 -1.19346 14.1494 2.90771 18.6246C3.09471 18.8482 3.31837 19.0343 3.54204 19.2589C3.5985 19.2984 3.66723 19.3165 3.73582 19.3097C3.80441 19.303 3.86833 19.272 3.91604 19.2222L4.40187 18.6631C4.45562 18.6082 4.48572 18.5345 4.48572 18.4577C4.48572 18.381 4.45562 18.3072 4.40187 18.2524C0.485873 14.6352 0.222789 8.48258 3.87754 4.56749C7.53229 0.652411 13.6483 0.392078 17.5634 4.04683C21.4785 7.70066 21.7388 13.8139 18.084 17.7299C17.898 17.916 17.7495 18.103 17.5634 18.2524C17.5099 18.3072 17.48 18.3807 17.48 18.4573C17.48 18.5338 17.5099 18.6074 17.5634 18.6622L18.0492 19.2222C18.104 19.2722 18.1736 19.3028 18.2474 19.3094C18.3213 19.3161 18.3953 19.2983 18.458 19.2589C22.9332 15.1192 23.1935 8.18466 19.0924 3.71041C18.0526 2.5814 16.7878 1.68288 15.3794 1.0728C13.9711 0.462715 12.4505 0.154629 10.9157 0.168412ZM11.2705 3.39324C9.18602 3.32274 7.15847 4.08043 5.63112 5.50066C2.46129 8.44591 2.27612 13.4051 5.22137 16.574C5.33321 16.6867 5.44412 16.8352 5.59354 16.9471C5.64822 17.0008 5.72178 17.0308 5.79841 17.0308C5.87504 17.0308 5.94861 17.0008 6.00329 16.9471L6.48912 16.3879C6.54232 16.3332 6.57208 16.2598 6.57208 16.1835C6.57208 16.1072 6.54232 16.0338 6.48912 15.9791C5.83334 15.3604 5.31003 14.6151 4.95092 13.7881C4.59182 12.9612 4.4044 12.0699 4.40004 11.1684C4.40004 7.55124 7.34437 4.60508 10.9615 4.60508C14.5787 4.60508 17.5249 7.58699 17.5249 11.2042C17.5235 12.0974 17.341 12.9811 16.9884 13.8018C16.6358 14.6225 16.1204 15.3632 15.4734 15.9791C15.4197 16.0338 15.3896 16.1073 15.3896 16.184C15.3896 16.2606 15.4197 16.3342 15.4734 16.3888L15.9583 16.948C16.0701 17.0589 16.2562 17.0965 16.368 16.9847C17.8862 15.5579 18.7778 13.5881 18.8478 11.5059C18.9179 9.42372 18.1608 7.39845 16.742 5.87283C16.0396 5.11767 15.194 4.5096 14.2546 4.08394C13.3151 3.65827 12.3014 3.4235 11.2705 3.39324ZM11.0266 6.43291C9.76643 6.41512 8.55051 6.89734 7.64504 7.77399C5.74295 9.60091 5.70629 12.5837 7.53321 14.4858L7.64412 14.5986C7.6988 14.6523 7.77237 14.6823 7.849 14.6823C7.92563 14.6823 7.99919 14.6523 8.05387 14.5986L8.5397 14.0385C8.59345 13.9837 8.62356 13.9099 8.62356 13.8332C8.62356 13.7564 8.59345 13.6827 8.5397 13.6278C7.89357 12.9725 7.53192 12.0887 7.53321 11.1684C7.532 10.7176 7.61989 10.271 7.79185 9.85431C7.9638 9.4376 8.21642 9.05898 8.53518 8.74022C8.85394 8.42146 9.23256 8.16884 9.64927 7.99689C10.066 7.82493 10.5126 7.73703 10.9634 7.73824C11.4142 7.73703 11.8608 7.82493 12.2775 7.99689C12.6942 8.16884 13.0728 8.42146 13.3916 8.74022C13.7103 9.05898 13.9629 9.4376 14.1349 9.85431C14.3068 10.271 14.3947 10.7176 14.3935 11.1684C14.3935 12.1007 14.0214 12.9568 13.3495 13.6278C13.2957 13.6827 13.2656 13.7564 13.2656 13.8332C13.2656 13.9099 13.2957 13.9837 13.3495 14.0385L13.8353 14.5977C13.8901 14.6511 13.9636 14.6811 14.0402 14.6811C14.1167 14.6811 14.1902 14.6511 14.245 14.5977C15.1467 13.7209 15.6647 12.5229 15.6858 11.2655C15.7069 10.008 15.2295 8.79329 14.3578 7.88674C13.9269 7.43554 13.4106 7.07462 12.8388 6.82502C12.2671 6.57542 11.6504 6.44212 11.0266 6.43291ZM11.0321 13.5316C10.897 13.5293 10.7658 13.577 10.6636 13.6654L10.627 13.703L4.06454 21.0867C3.98943 21.1773 3.95152 21.293 3.9585 21.4104C3.96548 21.5278 4.01682 21.6382 4.10212 21.7192C4.17187 21.7875 4.76552 22.2344 5.10493 21.9221L11.0321 15.33L16.8497 21.9221C16.9884 22.1042 17.7562 21.7839 17.8399 21.7004C17.9237 21.6168 17.9715 21.5039 17.9731 21.3856C17.9764 21.2753 17.9366 21.1682 17.8622 21.0867L11.3722 13.703C11.3312 13.6518 11.2797 13.61 11.2212 13.5805C11.1627 13.5509 11.0976 13.5342 11.0321 13.5316Z" fill="white"/>
</svg>
