<svg width="14" height="14" viewBox="0 0 14 14" fill="none" xmlns="http://www.w3.org/2000/svg">
<path fill-rule="evenodd" clip-rule="evenodd" d="M8.74767 0.422198C8.88927 0.363477 9.04105 0.333252 9.19434 0.333252C9.34763 0.333252 9.49941 0.363477 9.64101 0.422198C9.7826 0.480919 9.91123 0.566983 10.0195 0.675467L10.9544 1.6103C11.0628 1.71865 11.1489 1.84732 11.2076 1.98896C11.2663 2.13059 11.2965 2.28241 11.2965 2.43572C11.2965 2.58903 11.2663 2.74085 11.2076 2.88248C11.1489 3.02412 11.0628 3.15278 10.9544 3.26114L9.78777 4.42773C9.78098 4.43541 9.77391 4.44292 9.76656 4.45027C9.75922 4.45761 9.7517 4.46468 9.74403 4.47147L3.73189 10.4836C3.63813 10.5774 3.51095 10.6301 3.37834 10.6301H1.49967C1.22353 10.6301 0.999674 10.4062 0.999674 10.1301V8.25139C0.999674 8.11877 1.05236 7.99159 1.14614 7.89782L7.15436 1.89015C7.16233 1.88092 7.1707 1.87192 7.17946 1.86316C7.18823 1.85439 7.19724 1.84602 7.20648 1.83803L8.36915 0.675467C8.47739 0.567134 8.60622 0.480862 8.74767 0.422198ZM7.53394 2.92475L1.99967 8.45851V9.63005H3.17123L8.70524 4.09605L7.53394 2.92475ZM9.41234 3.38894L8.24108 2.21768L9.07686 1.38197C9.09228 1.36653 9.11059 1.35427 9.13075 1.34592C9.15091 1.33756 9.17252 1.33325 9.19434 1.33325C9.21616 1.33325 9.23777 1.33756 9.25793 1.34592C9.27809 1.35428 9.2967 1.36683 9.31212 1.38227L10.2475 2.31761C10.263 2.33309 10.2754 2.35166 10.2838 2.3719C10.2922 2.39213 10.2965 2.41381 10.2965 2.43572C10.2965 2.45763 10.2922 2.47931 10.2838 2.49954C10.2754 2.51978 10.263 2.53835 10.2475 2.55383L9.41234 3.38894ZM0.333008 12.7967C0.333008 12.5206 0.556865 12.2967 0.833008 12.2967H12.833C13.1091 12.2967 13.333 12.5206 13.333 12.7967C13.333 13.0729 13.1091 13.2967 12.833 13.2967H0.833008C0.556865 13.2967 0.333008 13.0729 0.333008 12.7967Z" fill="#858585"/>
</svg>
