<svg width="28" height="27" viewBox="0 0 28 27" fill="none" xmlns="http://www.w3.org/2000/svg">
<path fill-rule="evenodd" clip-rule="evenodd" d="M24.334 0.666992C24.8863 0.666992 25.334 1.11471 25.334 1.66699V7.00033C25.334 7.55261 24.8863 8.00033 24.334 8.00033C23.7817 8.00033 23.334 7.55261 23.334 7.00033V1.66699C23.334 1.11471 23.7817 0.666992 24.334 0.666992Z" fill="black"/>
<path fill-rule="evenodd" clip-rule="evenodd" d="M20.667 4.33398C20.667 3.7817 21.1147 3.33398 21.667 3.33398H27.0003C27.5526 3.33398 28.0003 3.7817 28.0003 4.33398C28.0003 4.88627 27.5526 5.33398 27.0003 5.33398H21.667C21.1147 5.33398 20.667 4.88627 20.667 4.33398Z" fill="black"/>
<path fill-rule="evenodd" clip-rule="evenodd" d="M0.666992 7.00065C0.666992 4.97503 2.30804 3.33398 4.33366 3.33398H16.3337C16.8859 3.33398 17.3337 3.7817 17.3337 4.33398C17.3337 4.88627 16.8859 5.33398 16.3337 5.33398H4.33366C3.41261 5.33398 2.66699 6.0796 2.66699 7.00065V23.0007C2.66699 23.9217 3.41261 24.6673 4.33366 24.6673H21.667C22.588 24.6673 23.3337 23.9217 23.3337 23.0007V12.334C23.3337 11.7817 23.7814 11.334 24.3337 11.334C24.8859 11.334 25.3337 11.7817 25.3337 12.334V23.0007C25.3337 25.0263 23.6926 26.6673 21.667 26.6673H4.33366C2.30804 26.6673 0.666992 25.0263 0.666992 23.0007V7.00065Z" fill="black"/>
<path fill-rule="evenodd" clip-rule="evenodd" d="M15.4948 12.3089C15.3628 12.0702 15.0166 12.0828 14.9015 12.3276L13.3987 15.5212C13.2578 15.8207 12.9778 16.0311 12.6509 16.083C12.324 16.135 11.9926 16.0219 11.7657 15.7809L10.3324 14.2582C10.1834 14.1 9.9243 14.1243 9.80762 14.309C9.80759 14.3091 9.80765 14.309 9.80762 14.309L7.80248 17.49C7.66248 17.712 7.82099 18.0008 8.08452 18.0008H18.0739C18.3276 18.0008 18.4887 17.7281 18.3666 17.5058L15.4948 12.3089ZM13.0917 11.4763C13.902 9.75348 16.3236 9.67546 17.2449 11.3407L20.1171 16.5385C20.9757 18.0947 19.8493 20.0008 18.0739 20.0008H8.08452C6.24679 20.0008 5.13076 17.9775 6.11056 16.4235C6.1106 16.4235 6.11052 16.4236 6.11056 16.4235L8.11589 13.2422C8.92991 11.9524 10.743 11.7764 11.7887 12.8874C11.7887 12.8874 11.7886 12.8873 11.7887 12.8874L12.2147 13.34L13.0917 11.4763C13.0917 11.4764 13.0917 11.4762 13.0917 11.4763Z" fill="black"/>
</svg>
