<svg width="24" height="24" viewBox="0 0 24 24" fill="none" xmlns="http://www.w3.org/2000/svg">
<path fill-rule="evenodd" clip-rule="evenodd" d="M12 7.75C11.4033 7.75 10.831 7.98705 10.409 8.40901C9.98705 8.83097 9.75 9.40326 9.75 10C9.75 10.5967 9.98705 11.169 10.409 11.591C10.831 12.0129 11.4033 12.25 12 12.25C12.5967 12.25 13.169 12.0129 13.591 11.591C14.0129 11.169 14.25 10.5967 14.25 10C14.25 9.40326 14.0129 8.83097 13.591 8.40901C13.169 7.98705 12.5967 7.75 12 7.75ZM9.34835 7.34835C10.0516 6.64509 11.0054 6.25 12 6.25C12.9946 6.25 13.9484 6.64509 14.6517 7.34835C15.3549 8.05161 15.75 9.00544 15.75 10C15.75 10.9946 15.3549 11.9484 14.6517 12.6517C13.9484 13.3549 12.9946 13.75 12 13.75C11.0054 13.75 10.0516 13.3549 9.34835 12.6517C8.64509 11.9484 8.25 10.9946 8.25 10C8.25 9.00544 8.64509 8.05161 9.34835 7.34835Z" fill="#858585"/>
<path fill-rule="evenodd" clip-rule="evenodd" d="M12 3.75C11.1792 3.75 10.3665 3.91166 9.60823 4.22575C8.84994 4.53984 8.16095 5.00022 7.58058 5.58058C7.00022 6.16095 6.53984 6.84994 6.22575 7.60823C5.91166 8.36651 5.75 9.17924 5.75 10C5.75 12.3384 7.33713 14.908 9.07546 16.9878C9.92687 18.0064 10.7804 18.8678 11.4218 19.4748C11.6434 19.6846 11.8392 19.8634 12 20.0073C12.1608 19.8634 12.3566 19.6846 12.5782 19.4748C13.2196 18.8678 14.0731 18.0064 14.9245 16.9878C16.6629 14.908 18.25 12.3384 18.25 10C18.25 9.17924 18.0883 8.36651 17.7742 7.60823C17.4602 6.84994 16.9998 6.16095 16.4194 5.58058C15.8391 5.00022 15.1501 4.53984 14.3918 4.22575C13.6335 3.91166 12.8208 3.75 12 3.75ZM12 21C11.5239 21.5795 11.5238 21.5794 11.5236 21.5793L11.5217 21.5777L11.5168 21.5737L11.4997 21.5595C11.4851 21.5472 11.464 21.5296 11.4368 21.5066C11.3826 21.4607 11.3043 21.3937 11.2053 21.3071C11.0075 21.134 10.7267 20.8823 10.3907 20.5643C9.71961 19.9291 8.82313 19.0248 7.92454 17.9497C6.16287 15.842 4.25 12.9116 4.25 10C4.25 8.98226 4.45046 7.97448 4.83993 7.0342C5.22941 6.09393 5.80027 5.23958 6.51992 4.51992C7.23958 3.80027 8.09393 3.22941 9.0342 2.83993C9.97448 2.45046 10.9823 2.25 12 2.25C13.0177 2.25 14.0255 2.45046 14.9658 2.83993C15.9061 3.22941 16.7604 3.80027 17.4801 4.51992C18.1997 5.23958 18.7706 6.09393 19.1601 7.0342C19.5495 7.97448 19.75 8.98226 19.75 10C19.75 12.9116 17.8371 15.842 16.0755 17.9497C15.1769 19.0248 14.2804 19.9291 13.6093 20.5643C13.2733 20.8823 12.9925 21.134 12.7947 21.3071C12.6957 21.3937 12.6174 21.4607 12.5632 21.5066C12.536 21.5296 12.5149 21.5472 12.5003 21.5595L12.4832 21.5737L12.4783 21.5777L12.4769 21.5789C12.4767 21.579 12.4761 21.5795 12 21ZM12 21L12.4761 21.5795C12.1994 21.8068 11.8003 21.8065 11.5236 21.5793L12 21Z" fill="#858585"/>
</svg>
