<svg width="20" height="22" viewBox="0 0 20 22" fill="none" xmlns="http://www.w3.org/2000/svg">
<path d="M6.33976 2.18625C5.03019 2.54716 3.72952 2.93961 2.43888 3.36325C2.32103 3.40143 2.21627 3.47193 2.13653 3.56674C2.0568 3.66155 2.00529 3.77685 1.98788 3.8995C1.22613 9.61538 2.98613 13.7858 5.08576 16.533C5.97472 17.7078 7.03469 18.7427 8.23038 19.6034C8.70613 19.9389 9.12688 20.1809 9.45826 20.3363C9.62326 20.4146 9.75801 20.4669 9.86113 20.4985C9.90623 20.5143 9.95273 20.5258 10 20.5329C10.0467 20.5253 10.0927 20.5138 10.1375 20.4985C10.242 20.4669 10.3768 20.4146 10.5418 20.3363C10.8718 20.1809 11.2939 19.9375 11.7696 19.6034C12.9653 18.7427 14.0253 17.7078 14.9143 16.533C17.0139 13.7871 18.7739 9.61538 18.0121 3.8995C17.9949 3.77679 17.9434 3.66142 17.8637 3.56658C17.7839 3.47175 17.6791 3.40128 17.5611 3.36325C16.666 3.07038 15.1549 2.59325 13.6603 2.18762C12.134 1.77375 10.7301 1.46713 10 1.46713C9.27126 1.46713 7.86601 1.77375 6.33976 2.18762V2.18625ZM5.97401 0.77C7.46588 0.364375 9.05126 0 10 0C10.9488 0 12.5341 0.364375 14.026 0.77C15.5523 1.1825 17.0909 1.67062 17.9956 1.96625C18.3739 2.09117 18.7093 2.32026 18.9632 2.62721C19.2171 2.93416 19.3793 3.30652 19.4311 3.7015C20.2506 9.85738 18.349 14.4196 16.0418 17.4377C15.0634 18.7288 13.8967 19.8658 12.5809 20.8106C12.1259 21.1376 11.6438 21.4251 11.1399 21.67C10.7549 21.8515 10.341 22 10 22C9.65901 22 9.24651 21.8515 8.86013 21.67C8.35621 21.4251 7.87413 21.1376 7.41913 20.8106C6.1033 19.8658 4.93668 18.7288 3.95826 17.4377C1.65101 14.4196 -0.250618 9.85738 0.568882 3.7015C0.620702 3.30652 0.782892 2.93416 1.03682 2.62721C1.29074 2.32026 1.62611 2.09117 2.00438 1.96625C3.31777 1.53561 4.64136 1.13675 5.97401 0.77Z" fill="#858585"/>
</svg>
