<svg width="14" height="12" viewBox="0 0 14 12" fill="none" xmlns="http://www.w3.org/2000/svg">
<path d="M8.75003 2.28127H2.89685L3.52657 1.65157C3.64965 1.52849 3.71879 1.36157 3.71879 1.18752C3.71879 1.01346 3.64965 0.84654 3.52657 0.723466C3.4035 0.600392 3.23658 0.53125 3.06252 0.53125C2.88847 0.53125 2.72155 0.600392 2.59847 0.723466L0.848473 2.47347C0.787531 2.5344 0.739189 2.60675 0.706207 2.68637C0.673226 2.76599 0.65625 2.85133 0.65625 2.93752C0.65625 3.0237 0.673226 3.10904 0.706207 3.18866C0.739189 3.26828 0.787531 3.34063 0.848473 3.40157L2.59847 5.15157C2.72155 5.27464 2.88847 5.34378 3.06252 5.34378C3.23658 5.34378 3.4035 5.27464 3.52657 5.15157C3.64965 5.02849 3.71879 4.86157 3.71879 4.68751C3.71879 4.51346 3.64965 4.34654 3.52657 4.22346L2.89685 3.59377H8.75003C9.62027 3.59377 10.4549 3.93947 11.0702 4.55482C11.6856 5.17017 12.0313 6.00477 12.0313 6.87501C12.0313 7.74526 11.6856 8.57985 11.0702 9.19521C10.4549 9.81056 9.62027 10.1563 8.75003 10.1563H4.81252C4.63848 10.1563 4.47156 10.2254 4.34849 10.3485C4.22541 10.4715 4.15627 10.6385 4.15627 10.8125C4.15627 10.9866 4.22541 11.1535 4.34849 11.2766C4.47156 11.3996 4.63848 11.4688 4.81252 11.4688H8.75003C11.283 11.4688 13.3438 9.40803 13.3438 6.87501C13.3438 4.342 11.283 2.28127 8.75003 2.28127Z" fill="white"/>
</svg>
