<svg width="25" height="24" viewBox="0 0 25 24" fill="none" xmlns="http://www.w3.org/2000/svg">
<path fill-rule="evenodd" clip-rule="evenodd" d="M20.1703 12.0051C20.1703 11.3146 19.6106 10.7549 18.9201 10.7549C18.2297 10.7549 17.6699 11.3146 17.6699 12.0051C17.6699 12.6956 18.2297 13.2553 18.9201 13.2553C19.6106 13.2553 20.1703 12.6956 20.1703 12.0051Z" fill="black"/>
<path fill-rule="evenodd" clip-rule="evenodd" d="M14.1684 12.0051C14.1684 11.3146 13.6086 10.7549 12.9182 10.7549C12.2277 10.7549 11.668 11.3146 11.668 12.0051C11.668 12.6956 12.2277 13.2553 12.9182 13.2553C13.6086 13.2553 14.1684 12.6956 14.1684 12.0051Z" fill="black"/>
<path fill-rule="evenodd" clip-rule="evenodd" d="M8.16546 12.0051C8.16546 11.3146 7.60572 10.7549 6.91525 10.7549C6.22478 10.7549 5.66504 11.3146 5.66504 12.0051C5.66504 12.6956 6.22478 13.2553 6.91525 13.2553C7.60572 13.2553 8.16546 12.6956 8.16546 12.0051Z" fill="black"/>
</svg>
