<svg width="18" height="18" viewBox="0 0 18 18" fill="none" xmlns="http://www.w3.org/2000/svg">
<path d="M8.2249 4.67481C8.28077 4.73054 8.32511 4.79675 8.35535 4.86965C8.3856 4.94254 8.40117 5.02069 8.40117 5.09961C8.40117 5.17853 8.3856 5.25668 8.35535 5.32957C8.32511 5.40246 8.28077 5.46867 8.2249 5.52441L6.1249 7.62441C6.01559 7.73359 5.86837 7.7964 5.71391 7.79975C5.55945 7.8031 5.40965 7.74675 5.2957 7.64241L4.3957 6.82041C4.33454 6.76814 4.28452 6.7041 4.24861 6.6321C4.21271 6.56011 4.19164 6.48163 4.18668 6.40133C4.18172 6.32103 4.19295 6.24055 4.21972 6.16468C4.24649 6.08881 4.28824 6.0191 4.3425 5.95969C4.39675 5.90029 4.4624 5.8524 4.53554 5.81888C4.60867 5.78536 4.68781 5.76688 4.76822 5.76456C4.84864 5.76224 4.92871 5.77612 5.00366 5.80536C5.07861 5.83461 5.14691 5.87863 5.2045 5.93481L5.6809 6.36921L7.3753 4.67481C7.43103 4.61893 7.49724 4.5746 7.57014 4.54435C7.64303 4.51411 7.72118 4.49854 7.8001 4.49854C7.87902 4.49854 7.95716 4.51411 8.03006 4.54435C8.10295 4.5746 8.16916 4.61893 8.2249 4.67481ZM8.2249 11.5244C8.33756 11.4117 8.40086 11.2589 8.40086 11.0996C8.40086 10.9403 8.33756 10.7875 8.2249 10.6748C8.11223 10.5621 7.95943 10.4989 7.8001 10.4989C7.64077 10.4989 7.48796 10.5621 7.3753 10.6748L5.6809 12.3692L5.2045 11.9348C5.08613 11.8336 4.93306 11.7824 4.77764 11.792C4.62222 11.8017 4.47663 11.8713 4.37162 11.9863C4.26661 12.1013 4.21041 12.2526 4.21491 12.4082C4.2194 12.5639 4.28423 12.7117 4.3957 12.8204L5.2957 13.6424C5.40958 13.7464 5.55913 13.8025 5.7133 13.7992C5.86748 13.7958 6.01444 13.7332 6.1237 13.6244L8.2237 11.5244H8.2249ZM9.6001 11.9996C9.6001 11.8405 9.66331 11.6879 9.77583 11.5753C9.88836 11.4628 10.041 11.3996 10.2001 11.3996H13.2001C13.3592 11.3996 13.5118 11.4628 13.6244 11.5753C13.7369 11.6879 13.8001 11.8405 13.8001 11.9996C13.8001 12.1587 13.7369 12.3114 13.6244 12.4239C13.5118 12.5364 13.3592 12.5996 13.2001 12.5996H10.2001C10.041 12.5996 9.88836 12.5364 9.77583 12.4239C9.66331 12.3114 9.6001 12.1587 9.6001 11.9996ZM10.2001 5.39961C10.041 5.39961 9.88836 5.46282 9.77583 5.57535C9.66331 5.68787 9.6001 5.84048 9.6001 5.99961C9.6001 6.15874 9.66331 6.31135 9.77583 6.42387C9.88836 6.5364 10.041 6.59961 10.2001 6.59961H13.2001C13.3592 6.59961 13.5118 6.5364 13.6244 6.42387C13.7369 6.31135 13.8001 6.15874 13.8001 5.99961C13.8001 5.84048 13.7369 5.68787 13.6244 5.57535C13.5118 5.46282 13.3592 5.39961 13.2001 5.39961H10.2001ZM0.600098 2.39961C0.600098 1.92222 0.78974 1.46438 1.12731 1.12682C1.46487 0.789252 1.92271 0.599609 2.4001 0.599609H15.6001C16.0775 0.599609 16.5353 0.789252 16.8729 1.12682C17.2105 1.46438 17.4001 1.92222 17.4001 2.39961V15.5996C17.4001 16.077 17.2105 16.5348 16.8729 16.8724C16.5353 17.21 16.0775 17.3996 15.6001 17.3996H2.4001C1.92271 17.3996 1.46487 17.21 1.12731 16.8724C0.78974 16.5348 0.600098 16.077 0.600098 15.5996V2.39961ZM2.4001 1.79961C2.24097 1.79961 2.08836 1.86282 1.97583 1.97535C1.86331 2.08787 1.8001 2.24048 1.8001 2.39961V15.5996C1.8001 15.7587 1.86331 15.9114 1.97583 16.0239C2.08836 16.1364 2.24097 16.1996 2.4001 16.1996H15.6001C15.7592 16.1996 15.9118 16.1364 16.0244 16.0239C16.1369 15.9114 16.2001 15.7587 16.2001 15.5996V2.39961C16.2001 2.24048 16.1369 2.08787 16.0244 1.97535C15.9118 1.86282 15.7592 1.79961 15.6001 1.79961H2.4001Z" fill="#858585"/>
</svg>
