<svg width="24" height="24" viewBox="0 0 24 24" fill="none" xmlns="http://www.w3.org/2000/svg">
<path d="M11.9337 11.5331C13.7337 11.5331 15.1337 10.0664 15.1337 8.26641C15.1337 6.46641 13.667 5.06641 11.867 5.06641C10.067 5.06641 8.66699 6.53307 8.66699 8.26641C8.66699 10.0664 10.1337 11.5331 11.9337 11.5331ZM11.867 6.39974C11.9337 6.39974 11.9337 6.39974 11.867 6.39974C12.9337 6.39974 13.8003 7.26641 13.8003 8.33307C13.8003 9.39974 12.9337 10.1997 11.867 10.1997C10.8003 10.1997 10.0003 9.33307 10.0003 8.33307C10.0003 7.26641 10.867 6.39974 11.867 6.39974Z" fill="#858585"/>
<path d="M21.8 11.1346C20.5333 10.0012 18.8667 9.40124 17.1333 9.46791H16.6C16.4667 10.0012 16.2667 10.4679 16 10.8679C16.4 10.8012 16.7333 10.8012 17.1333 10.8012C18.4 10.7346 19.6667 11.1346 20.6667 11.8679V16.6679H22V11.3346L21.8 11.1346Z" fill="#858585"/>
<path d="M15.6003 5.20052C15.9337 4.40052 16.867 4.00052 17.7337 4.33385C18.5337 4.66719 18.9337 5.60052 18.6003 6.46719C18.3337 7.06719 17.7337 7.46719 17.1337 7.46719C17.0003 7.46719 16.8003 7.46719 16.667 7.40052C16.7337 7.73385 16.7337 8.06719 16.7337 8.33385V8.73385C16.867 8.73385 17.0003 8.80052 17.1337 8.80052C18.8003 8.80052 20.1337 7.46719 20.1337 5.86719C20.1337 4.20052 18.8003 2.86719 17.2003 2.86719C16.1337 2.86719 15.2003 3.40052 14.667 4.33385C15.0003 4.53385 15.3337 4.80052 15.6003 5.20052Z" fill="#858585"/>
<path d="M8 10.9324C7.73333 10.5324 7.53333 10.0657 7.4 9.53237H6.86667C5.13333 9.4657 3.46667 10.0657 2.2 11.1324L2 11.3324V16.6657H3.33333V11.8657C4.4 11.1324 5.6 10.7324 6.86667 10.799C7.26667 10.799 7.66667 10.8657 8 10.9324Z" fill="#858585"/>
<path d="M6.86716 8.73409C7.0005 8.73409 7.13383 8.73409 7.26716 8.66742V8.26742C7.26716 7.93409 7.26716 7.60076 7.33383 7.33409C7.2005 7.40076 7.0005 7.40076 6.86716 7.40076C6.0005 7.40076 5.26716 6.66742 5.26716 5.80076C5.26716 4.93409 6.0005 4.20076 6.86716 4.20076C7.53383 4.20076 8.13383 4.60076 8.4005 5.20076C8.66716 4.86742 9.06716 4.53409 9.4005 4.26742C8.53383 2.86742 6.73383 2.40076 5.33383 3.26742C3.93383 4.13409 3.46716 5.93409 4.33383 7.33409C4.86716 8.20076 5.8005 8.73409 6.86716 8.73409Z" fill="#858585"/>
<path d="M17.4003 15.1324L17.267 14.9324C15.9337 13.4657 14.067 12.599 12.067 12.6657C10.067 12.599 8.13366 13.4657 6.80033 14.9324L6.66699 15.1324V20.199C6.66699 20.799 7.13366 21.3324 7.80033 21.3324H16.3337C16.9337 21.3324 17.467 20.799 17.467 20.199V15.1324H17.4003ZM16.067 19.999H8.00033V15.599C9.06699 14.5324 10.5337 13.999 12.067 13.999C13.5337 13.9324 15.0003 14.5324 16.067 15.599V19.999Z" fill="#858585"/>
</svg>
