<svg width="24" height="24" viewBox="0 0 24 24" fill="none" xmlns="http://www.w3.org/2000/svg">
<path d="M9.27273 2H3.81818C3.33614 2.00054 2.87399 2.19227 2.53313 2.53313C2.19227 2.87399 2.00054 3.33614 2 3.81818V9.27273C2.00054 9.75477 2.19227 10.2169 2.53313 10.5578C2.87399 10.8986 3.33614 11.0904 3.81818 11.0909H9.27273C9.75477 11.0904 10.2169 10.8986 10.5578 10.5578C10.8986 10.2169 11.0904 9.75477 11.0909 9.27273V3.81818C11.0904 3.33614 10.8986 2.87399 10.5578 2.53313C10.2169 2.19227 9.75477 2.00054 9.27273 2ZM9.27273 9.27273H3.81818V3.81818H9.27273L9.27386 9.27273H9.27273ZM9.27273 12.9091H3.81818C3.33614 12.9096 2.87399 13.1014 2.53313 13.4422C2.19227 13.7831 2.00054 14.2452 2 14.7273V20.1818C2.00054 20.6639 2.19227 21.126 2.53313 21.4669C2.87399 21.8077 3.33614 21.9995 3.81818 22H9.27273C9.75477 21.9995 10.2169 21.8077 10.5578 21.4669C10.8986 21.126 11.0904 20.6639 11.0909 20.1818V14.7273C11.0904 14.2452 10.8986 13.7831 10.5578 13.4422C10.2169 13.1014 9.75477 12.9096 9.27273 12.9091ZM9.27273 20.1818H3.81818V14.7273H9.27273L9.27386 20.1818H9.27273ZM20.1818 2H14.7273C14.2452 2.00054 13.7831 2.19227 13.4422 2.53313C13.1014 2.87399 12.9096 3.33614 12.9091 3.81818V9.27273C12.9096 9.75477 13.1014 10.2169 13.4422 10.5578C13.7831 10.8986 14.2452 11.0904 14.7273 11.0909H20.1818C20.6639 11.0904 21.126 10.8986 21.4669 10.5578C21.8077 10.2169 21.9995 9.75477 22 9.27273V3.81818C21.9995 3.33614 21.8077 2.87399 21.4669 2.53313C21.126 2.19227 20.6639 2.00054 20.1818 2ZM20.1818 9.27273H14.7273V3.81818H20.1818L20.183 9.27273H20.1818ZM12.9091 17.4545V13.8182C12.9091 13.5771 13.0049 13.3458 13.1754 13.1754C13.3458 13.0049 13.5771 12.9091 13.8182 12.9091C14.0593 12.9091 14.2905 13.0049 14.461 13.1754C14.6315 13.3458 14.7273 13.5771 14.7273 13.8182V17.4545C14.7273 17.6957 14.6315 17.9269 14.461 18.0974C14.2905 18.2679 14.0593 18.3636 13.8182 18.3636C13.5771 18.3636 13.3458 18.2679 13.1754 18.0974C13.0049 17.9269 12.9091 17.6957 12.9091 17.4545ZM22 15.6364C22 15.8775 21.9042 16.1087 21.7337 16.2792C21.5632 16.4497 21.332 16.5455 21.0909 16.5455H18.3636V21.0909C18.3636 21.332 18.2679 21.5632 18.0974 21.7337C17.9269 21.9042 17.6957 22 17.4545 22H13.8182C13.5771 22 13.3458 21.9042 13.1754 21.7337C13.0049 21.5632 12.9091 21.332 12.9091 21.0909C12.9091 20.8498 13.0049 20.6186 13.1754 20.4481C13.3458 20.2776 13.5771 20.1818 13.8182 20.1818H16.5455V13.8182C16.5455 13.5771 16.6412 13.3458 16.8117 13.1754C16.9822 13.0049 17.2134 12.9091 17.4545 12.9091C17.6957 12.9091 17.9269 13.0049 18.0974 13.1754C18.2679 13.3458 18.3636 13.5771 18.3636 13.8182V14.7273H21.0909C21.332 14.7273 21.5632 14.8231 21.7337 14.9935C21.9042 15.164 22 15.3953 22 15.6364ZM22 19.2727V21.0909C22 21.332 21.9042 21.5632 21.7337 21.7337C21.5632 21.9042 21.332 22 21.0909 22C20.8498 22 20.6186 21.9042 20.4481 21.7337C20.2776 21.5632 20.1818 21.332 20.1818 21.0909V19.2727C20.1818 19.0316 20.2776 18.8004 20.4481 18.6299C20.6186 18.4594 20.8498 18.3636 21.0909 18.3636C21.332 18.3636 21.5632 18.4594 21.7337 18.6299C21.9042 18.8004 22 19.0316 22 19.2727Z" fill="white"/>
</svg>
