<svg width="16" height="16" viewBox="0 0 16 16" fill="none" xmlns="http://www.w3.org/2000/svg">
<path fill-rule="evenodd" clip-rule="evenodd" d="M9.7467 1.42098C9.88829 1.36226 10.0401 1.33203 10.1934 1.33203C10.3467 1.33203 10.4984 1.36226 10.64 1.42098C10.7816 1.4797 10.9103 1.56576 11.0186 1.67425L11.9534 2.60908C12.0619 2.71743 12.1479 2.8461 12.2066 2.98774C12.2653 3.12937 12.2956 3.28118 12.2956 3.4345C12.2956 3.58781 12.2653 3.73963 12.2066 3.88126C12.1479 4.02289 12.0619 4.15156 11.9534 4.25992L10.7868 5.42651C10.78 5.43419 10.7729 5.4417 10.7656 5.44905C10.7582 5.45639 10.7507 5.46346 10.743 5.47025L4.73092 11.4824C4.63715 11.5762 4.50997 11.6288 4.37736 11.6288H2.4987C2.22256 11.6288 1.9987 11.405 1.9987 11.1288V9.25017C1.9987 9.11755 2.05138 8.99037 2.14516 8.8966L8.15338 2.88893C8.16136 2.8797 8.16972 2.8707 8.17848 2.86194C8.18725 2.85317 8.19627 2.84479 8.2055 2.83681L9.36818 1.67425C9.47641 1.56591 9.60524 1.47964 9.7467 1.42098ZM8.53296 3.92353L2.9987 9.45729V10.6288H4.17026L9.70426 5.09483L8.53296 3.92353ZM10.4114 4.38772L9.2401 3.21646L10.0759 2.38075C10.0913 2.36531 10.1096 2.35305 10.1298 2.34469C10.1499 2.33633 10.1715 2.33203 10.1934 2.33203C10.2152 2.33203 10.2368 2.33633 10.257 2.34469C10.2771 2.35305 10.2957 2.36561 10.3111 2.38105L11.2465 3.31639C11.262 3.33186 11.2745 3.35044 11.2829 3.37068C11.2912 3.3909 11.2956 3.41259 11.2956 3.4345C11.2956 3.45641 11.2912 3.47809 11.2829 3.49832C11.2745 3.51855 11.262 3.53713 11.2465 3.55261L10.4114 4.38772ZM1.33203 13.7955C1.33203 13.5194 1.55589 13.2955 1.83203 13.2955H13.832C14.1082 13.2955 14.332 13.5194 14.332 13.7955C14.332 14.0716 14.1082 14.2955 13.832 14.2955H1.83203C1.55589 14.2955 1.33203 14.0716 1.33203 13.7955Z" fill="#858585"/>
</svg>
